<svg fill="#343851" id="Capa_1" data-name="Capa 1" xmlns="http://www.w3.org/2000/svg" viewBox="0 0 260.17 266.56"><defs><style>.cls-1{fill:none;stroke:#231f20;stroke-linecap:round;stroke-miterlimit:10;stroke-width:8px;}</style></defs><title>select</title><path d="M316.6,232a19.37,19.37,0,0,0-10.81,3.29,19.45,19.45,0,0,0-29.16-9.72,19.44,19.44,0,0,0-28.07-10.39V183.44a19.44,19.44,0,0,0-38.88,0V297.07L183,283.7a29.37,29.37,0,0,0-13-3.07,18.59,18.59,0,0,0-18.56,18.62,18.41,18.41,0,0,0,5.44,13.13l62.85,62.85a74.71,74.71,0,0,0,53.2,22A63.25,63.25,0,0,0,336,334.09V251.47A19.46,19.46,0,0,0,316.6,232Zm9.72,102.06a53.52,53.52,0,0,1-53.47,53.45,65,65,0,0,1-46.31-19.19L163.68,305.5a8.88,8.88,0,0,1,6.25-15.15,19.55,19.55,0,0,1,8.69,2l33.76,16.87a4.85,4.85,0,0,0,7-4.34V183.44a9.72,9.72,0,0,1,19.44,0v92.33a4.86,4.86,0,0,0,9.72,0V232A9.72,9.72,0,0,1,268,232v43.73a4.86,4.86,0,0,0,9.72,0v-34a9.72,9.72,0,0,1,19.44,0v34a4.86,4.86,0,0,0,9.72,0v-24.3a9.72,9.72,0,1,1,19.44,0Z" transform="translate(-75.87 -130.71)"/><path class="cls-1" d="M266.43,173.68a39,39,0,1,0-77.94,0" transform="translate(-75.87 -130.71)"/><line class="cls-1" x1="75.5" y1="23.71" x2="4" y2="23.71"/><line class="cls-1" x1="20.5" y1="42.71" x2="4" y2="23.71"/><line class="cls-1" x1="4.35" y1="22.05" x2="22.15" y2="4.26"/></svg>